<svg width="31" height="31" viewBox="0 0 31 31" fill="none" xmlns="http://www.w3.org/2000/svg">
<path d="M19.375 23.25V24.2188C19.375 25.2465 18.9667 26.2321 18.24 26.9588C17.5133 27.6855 16.5277 28.0938 15.5 28.0938C14.4723 28.0938 13.4867 27.6855 12.76 26.9588C12.0333 26.2321 11.625 25.2465 11.625 24.2188V23.25M25.8947 21.278C24.3398 19.375 23.2421 18.4063 23.2421 13.1599C23.2421 8.35547 20.7888 6.64381 18.7695 5.8125C18.5013 5.7023 18.2488 5.44922 18.1671 5.17373C17.8129 3.96824 16.8199 2.90625 15.5 2.90625C14.1801 2.90625 13.1865 3.96885 12.8359 5.17494C12.7542 5.45346 12.5017 5.7023 12.2335 5.8125C10.2118 6.64502 7.76089 8.35063 7.76089 13.1599C7.75786 18.4063 6.66015 19.375 5.10531 21.278C4.46109 22.0663 5.02538 23.25 6.15216 23.25H24.8539C25.9746 23.25 26.5353 22.0627 25.8947 21.278Z" stroke="black" stroke-width="1.5" stroke-linecap="round" stroke-linejoin="round"/>
</svg>
