<svg width="28" height="28" viewBox="0 0 28 28" fill="none" xmlns="http://www.w3.org/2000/svg">
<path d="M14 14H22.1667M22.1667 14L18.6667 17.5M22.1667 14L18.6667 10.5M22.1667 7V5.83333C22.1667 5.21449 21.9209 4.621 21.4833 4.18342C21.0457 3.74583 20.4522 3.5 19.8334 3.5H8.16671C7.54787 3.5 6.95438 3.74583 6.51679 4.18342C6.07921 4.621 5.83337 5.21449 5.83337 5.83333V22.1667C5.83337 22.7855 6.07921 23.379 6.51679 23.8166C6.95438 24.2542 7.54787 24.5 8.16671 24.5H19.8334C20.4522 24.5 21.0457 24.2542 21.4833 23.8166C21.9209 23.379 22.1667 22.7855 22.1667 22.1667V21" stroke="black" stroke-width="1.5" stroke-linecap="round" stroke-linejoin="round"/>
</svg>
