<svg width="42" height="42" viewBox="0 0 42 42" fill="none" xmlns="http://www.w3.org/2000/svg">
<path d="M14.875 13.125C14.4109 13.125 13.9658 13.3094 13.6376 13.6376C13.3094 13.9658 13.125 14.4109 13.125 14.875V27.125C13.125 27.5891 13.3094 28.0342 13.6376 28.3624C13.9658 28.6906 14.4109 28.875 14.875 28.875H27.125C27.5891 28.875 28.0342 28.6906 28.3624 28.3624C28.6906 28.0342 28.875 27.5891 28.875 27.125V14.875C28.875 14.4109 28.6906 13.9658 28.3624 13.6376C28.0342 13.3094 27.5891 13.125 27.125 13.125H14.875ZM38.5 21C38.5 30.6652 30.6652 38.5 21 38.5C11.3347 38.5 3.5 30.6652 3.5 21C3.5 11.3347 11.3347 3.5 21 3.5C30.6652 3.5 38.5 11.3347 38.5 21ZM36.3125 21C36.3125 12.5431 29.4569 5.6875 21 5.6875C12.5431 5.6875 5.6875 12.5431 5.6875 21C5.6875 29.4569 12.5431 36.3125 21 36.3125C29.4569 36.3125 36.3125 29.4569 36.3125 21Z" fill="#1573FF"/>
</svg>
