<svg width="27" height="27" viewBox="0 0 27 27" fill="none" xmlns="http://www.w3.org/2000/svg">
<path d="M6.89962 23.625C5.57437 23.625 4.5 22.5225 4.5 21.1613V11.259C4.5 10.5109 4.83188 9.80213 5.4 9.33526L12.0004 3.91501C12.4221 3.56579 12.9525 3.37469 13.5 3.37469C14.0475 3.37469 14.5779 3.56579 14.9996 3.91501L21.5989 9.33526C22.1681 9.80213 22.5 10.5109 22.5 11.259V21.1613C22.5 22.5225 21.4256 23.625 20.1004 23.625H6.89962Z" stroke="black" stroke-width="1.5" stroke-linecap="round" stroke-linejoin="round"/>
<path d="M10.6875 23.625V17.4375C10.6875 16.8408 10.9246 16.2685 11.3465 15.8465C11.7685 15.4246 12.3408 15.1875 12.9375 15.1875H14.0625C14.6592 15.1875 15.2315 15.4246 15.6535 15.8465C16.0754 16.2685 16.3125 16.8408 16.3125 17.4375V23.625" stroke="black" stroke-width="1.5" stroke-linecap="round" stroke-linejoin="round"/>
</svg>
