<svg width="26" height="26" viewBox="0 0 26 26" fill="none" xmlns="http://www.w3.org/2000/svg">
<path d="M20.9278 14.625H16.7299C16.1735 14.6244 15.6395 14.8446 15.2451 15.2371C14.8507 15.6297 14.6281 16.1626 14.6261 16.7191V20.917C14.6258 21.1934 14.68 21.4671 14.7856 21.7224C14.8913 21.9778 15.0462 22.2099 15.2416 22.4053C15.4371 22.6007 15.6691 22.7556 15.9245 22.8613C16.1799 22.9669 16.4536 23.0211 16.7299 23.0208H20.9278C21.4841 23.0185 22.0168 22.7958 22.4091 22.4015C22.8014 22.0071 23.0214 21.4733 23.0208 20.917V16.7191C23.0211 16.4442 22.9672 16.1719 22.8621 15.9178C22.757 15.6637 22.6029 15.4329 22.4084 15.2385C22.214 15.0441 21.9832 14.8899 21.7291 14.7848C21.4751 14.6797 21.2028 14.6258 20.9278 14.6261M9.27008 14.625H5.07217C4.51597 14.6282 3.98364 14.8513 3.59146 15.2457C3.19929 15.6401 2.97916 16.1737 2.97917 16.7299V20.9278C2.97888 21.2028 3.03282 21.4751 3.1379 21.7291C3.24299 21.9832 3.39715 22.214 3.59155 22.4084C3.78596 22.6029 4.01681 22.757 4.27087 22.8621C4.52493 22.9672 4.79723 23.0211 5.07217 23.0208H9.27008C9.82636 23.0214 10.3602 22.8014 10.7545 22.4091C11.1489 22.0168 11.3716 21.4841 11.3739 20.9278V16.7299C11.3742 16.4536 11.32 16.1799 11.2144 15.9245C11.1087 15.6691 10.9538 15.4371 10.7584 15.2417C10.5629 15.0462 10.3309 14.8913 10.0755 14.7857C9.82014 14.68 9.54644 14.6258 9.27008 14.6261M9.27008 2.97917H5.07217C4.79723 2.97889 4.52493 3.03283 4.27087 3.13791C4.01681 3.24299 3.78596 3.39715 3.59155 3.59156C3.39715 3.78597 3.24299 4.01682 3.1379 4.27088C3.03282 4.52494 2.97888 4.79724 2.97917 5.07217V9.27009C2.97859 9.82636 3.19857 10.3602 3.5909 10.7545C3.98323 11.1489 4.5159 11.3716 5.07217 11.3739H9.27008C9.54644 11.3742 9.82014 11.32 10.0755 11.2144C10.3309 11.1087 10.5629 10.9538 10.7584 10.7584C10.9538 10.5629 11.1087 10.3309 11.2144 10.0755C11.32 9.82015 11.3742 9.54645 11.3739 9.27009V5.07217C11.3716 4.5159 11.1489 3.98323 10.7545 3.5909C10.3602 3.19858 9.82636 2.97859 9.27008 2.97917ZM20.9278 2.97917H16.7299C16.1736 2.97859 15.6398 3.19858 15.2455 3.5909C14.8511 3.98323 14.6284 4.5159 14.6261 5.07217V9.27009C14.6264 9.82797 14.8481 10.3629 15.2426 10.7574C15.6371 11.1519 16.172 11.3736 16.7299 11.3739H20.9278C21.4841 11.3716 22.0168 11.1489 22.4091 10.7545C22.8014 10.3602 23.0214 9.82636 23.0208 9.27009V5.07217C23.0211 4.79724 22.9672 4.52494 22.8621 4.27088C22.757 4.01682 22.6029 3.78597 22.4084 3.59156C22.214 3.39715 21.9832 3.24299 21.7291 3.13791C21.4751 3.03283 21.2028 2.97889 20.9278 2.97917Z" stroke="white" stroke-width="1.5" stroke-linecap="round" stroke-linejoin="round"/>
</svg>
