<svg width="31" height="31" viewBox="0 0 31 31" fill="none" xmlns="http://www.w3.org/2000/svg">
<path fill-rule="evenodd" clip-rule="evenodd" d="M16.2272 4.13333H14.7728L13.9397 7.46325L13.104 7.72158C12.617 7.87164 12.1452 8.06711 11.6948 8.30542L10.9211 8.71487L7.97608 6.94787L6.94792 7.97733L8.71492 10.9223L8.30546 11.6947C8.06671 12.1451 7.87081 12.6169 7.72033 13.104L7.46329 13.9397L4.13337 14.7728V16.2272L7.46329 17.0603L7.72162 17.896C7.8706 18.3852 8.06521 18.8549 8.30546 19.3053L8.71492 20.079L6.94792 23.024L7.97737 24.0521L10.9224 22.2851L11.6948 22.6946C12.1452 22.934 12.6149 23.129 13.104 23.2797L13.9397 23.5368L14.7728 26.8667H16.2272L17.0604 23.5368L17.8961 23.2784C18.3831 23.1284 18.8549 22.9329 19.3053 22.6946L20.079 22.2851L23.024 24.0521L24.0522 23.0227L22.2852 20.0777L22.6946 19.3053C22.934 18.8549 23.1291 18.3852 23.2798 17.896L23.5368 17.0603L26.8667 16.2272V14.7728L23.5368 13.9397L23.2785 13.104C23.1284 12.617 22.9329 12.1452 22.6946 11.6947L22.2852 10.921L24.0522 7.97604L23.0227 6.94787L20.0777 8.71487L19.3053 8.30542C18.8549 8.06667 18.3831 7.87077 17.8961 7.72029L17.0604 7.46325L16.2272 4.13333ZM20.0312 6.93625L22.3988 5.51542C22.6457 5.36734 22.935 5.30598 23.2207 5.34109C23.5064 5.37619 23.7723 5.50574 23.976 5.70917L25.2909 7.02408C25.4943 7.22778 25.6239 7.4936 25.659 7.77933C25.6941 8.06506 25.6327 8.35433 25.4846 8.60121L24.0638 10.9688C24.348 11.5027 24.5805 12.0624 24.7613 12.648L27.4389 13.3184C27.7182 13.3883 27.9662 13.5496 28.1433 13.7766C28.3205 14.0037 28.4167 14.2833 28.4167 14.5713V16.4287C28.4167 16.7167 28.3205 16.9963 28.1433 17.2234C27.9662 17.4504 27.7182 17.6117 27.4389 17.6816L24.7613 18.352C24.5805 18.9376 24.348 19.4973 24.0638 20.0312L25.4846 22.3988C25.6327 22.6457 25.6941 22.9349 25.659 23.2207C25.6239 23.5064 25.4943 23.7722 25.2909 23.9759L23.976 25.2908C23.7723 25.4943 23.5064 25.6238 23.2207 25.6589C22.935 25.694 22.6457 25.6327 22.3988 25.4846L20.0312 24.0637C19.4973 24.3479 18.9376 24.5804 18.352 24.7612L17.6817 27.4389C17.6117 27.7182 17.4504 27.9661 17.2234 28.1433C16.9964 28.3204 16.7167 28.4167 16.4288 28.4167H14.5713C14.2834 28.4167 14.0037 28.3204 13.7767 28.1433C13.5497 27.9661 13.3884 27.7182 13.3184 27.4389L12.648 24.7612C12.0677 24.5819 11.5055 24.3484 10.9689 24.0637L8.60125 25.4846C8.35437 25.6327 8.0651 25.694 7.77937 25.6589C7.49364 25.6238 7.22782 25.4943 7.02412 25.2908L5.70921 23.9759C5.50578 23.7722 5.37623 23.5064 5.34113 23.2207C5.30603 22.9349 5.36738 22.6457 5.51546 22.3988L6.93629 20.0312C6.65166 19.4946 6.41813 18.9324 6.23879 18.352L3.56117 17.6816C3.28206 17.6117 3.03429 17.4506 2.85716 17.2239C2.68003 16.9971 2.58367 16.7177 2.58337 16.43V14.5726C2.58338 14.2846 2.67961 14.0049 2.85676 13.7779C3.03392 13.5509 3.28185 13.3896 3.56117 13.3197L6.23879 12.6493C6.41962 12.0637 6.65212 11.504 6.93629 10.9701L5.51546 8.6025C5.36738 8.35562 5.30603 8.06635 5.34113 7.78062C5.37623 7.49489 5.50578 7.22907 5.70921 7.02537L7.02412 5.70917C7.22782 5.50574 7.49364 5.37619 7.77937 5.34109C8.0651 5.30598 8.35437 5.36734 8.60125 5.51542L10.9689 6.93625C11.5028 6.65208 12.0625 6.41958 12.648 6.23875L13.3184 3.56112C13.3883 3.28202 13.5494 3.03425 13.7762 2.85712C14.0029 2.67998 14.2823 2.58363 14.57 2.58333H16.4275C16.7154 2.58334 16.9951 2.67956 17.2221 2.85672C17.4491 3.03388 17.6104 3.28181 17.6804 3.56112L18.3507 6.23875C18.9363 6.41958 19.496 6.65208 20.0299 6.93625H20.0312ZM15.5 19.1167C16.4592 19.1167 17.3792 18.7356 18.0574 18.0574C18.7357 17.3791 19.1167 16.4592 19.1167 15.5C19.1167 14.5408 18.7357 13.6209 18.0574 12.9426C17.3792 12.2644 16.4592 11.8833 15.5 11.8833C14.5408 11.8833 13.6209 12.2644 12.9427 12.9426C12.2644 13.6209 11.8834 14.5408 11.8834 15.5C11.8834 16.4592 12.2644 17.3791 12.9427 18.0574C13.6209 18.7356 14.5408 19.1167 15.5 19.1167ZM15.5 20.6667C14.1298 20.6667 12.8156 20.1223 11.8467 19.1534C10.8777 18.1844 10.3334 16.8703 10.3334 15.5C10.3334 14.1297 10.8777 12.8156 11.8467 11.8466C12.8156 10.8777 14.1298 10.3333 15.5 10.3333C16.8703 10.3333 18.1845 10.8777 19.1534 11.8466C20.1224 12.8156 20.6667 14.1297 20.6667 15.5C20.6667 16.8703 20.1224 18.1844 19.1534 19.1534C18.1845 20.1223 16.8703 20.6667 15.5 20.6667Z" fill="black"/>
</svg>
