<svg width="109" height="28" viewBox="0 0 109 28" fill="none" xmlns="http://www.w3.org/2000/svg">
<path d="M0.47626 19.1222C0.213221 19.0952 0 18.941 0 18.7781C0 15.4596 0 12.1412 0 8.82278C0 8.65984 0.21309 8.50561 0.47626 8.47869C0.739298 8.45177 0.952794 8.56512 0.952663 8.73165C0.952663 12.1109 0.952663 15.4901 0.952663 18.8693C0.952794 19.0356 0.739429 19.1491 0.47626 19.1222Z" fill="#1573FF"/>
<path d="M3.06302 23.4319C2.7992 23.3878 2.58545 23.2131 2.58545 23.0421C2.58545 16.881 2.58545 10.7198 2.58545 4.5587C2.58545 4.3877 2.7992 4.21304 3.06302 4.16897C3.32684 4.1249 3.54086 4.23087 3.54086 4.40523C3.54086 10.6687 3.54086 16.9321 3.54086 23.1957C3.54086 23.37 3.32684 23.4759 3.06302 23.4319Z" fill="#1573FF"/>
<path d="M5.65687 16.6524C5.39227 16.6404 5.17798 16.4857 5.17798 16.3071C5.17798 14.636 5.17798 12.9648 5.17798 11.2936C5.17798 11.1151 5.3924 10.9604 5.65687 10.9483C5.92135 10.9363 6.13601 11.074 6.13601 11.2558C6.13601 12.9522 6.13601 14.6486 6.13601 16.3449C6.13601 16.5267 5.92148 16.6644 5.65687 16.6524Z" fill="#1573FF"/>
<path d="M8.25791 16.8963C7.99265 16.8845 7.77771 16.7241 7.77771 16.5383C7.77771 14.713 7.77771 12.8877 7.77771 11.0624C7.77771 10.8766 7.99265 10.7162 8.25791 10.7043C8.52317 10.6925 8.73835 10.836 8.73835 11.0248C8.73835 12.8751 8.73835 14.7255 8.73835 16.5759C8.73822 16.7646 8.52304 16.9082 8.25791 16.8963Z" fill="#1573FF"/>
<path d="M10.8653 18.5034C10.5993 18.4871 10.3839 18.3175 10.3839 18.1249C10.3839 15.2418 10.3839 12.3589 10.3839 9.47581C10.3839 9.28325 10.5993 9.11367 10.8653 9.09734C11.1312 9.08101 11.3468 9.22635 11.3468 9.42181C11.3468 12.3408 11.3468 15.2599 11.3468 18.1789C11.3468 18.3743 11.1312 18.5197 10.8653 18.5034Z" fill="#1573FF"/>
<path d="M13.4789 19.4993C13.2124 19.4813 12.9965 19.3053 12.9965 19.1062C12.9965 15.569 12.9965 12.0318 12.9965 8.49453C12.9965 8.29557 13.2124 8.11942 13.4789 8.10145C13.7453 8.08348 13.9616 8.23263 13.9616 8.43428C13.9616 12.0116 13.9616 15.5891 13.9616 19.1664C13.9614 19.3681 13.7453 19.5173 13.4789 19.4993Z" fill="#1573FF"/>
<path d="M16.0982 17.3547C15.8312 17.3445 15.6148 17.1698 15.6148 16.9647C15.6148 14.8552 15.6148 12.7455 15.6148 10.6359C15.6148 10.4309 15.8313 10.2563 16.0982 10.246C16.3653 10.2358 16.582 10.3957 16.582 10.6033C16.582 12.7346 16.582 14.866 16.582 16.9973C16.5818 17.2049 16.3652 17.365 16.0982 17.3547Z" fill="#1573FF"/>
<path d="M18.7231 21.4586C18.4555 21.4387 18.2386 21.2516 18.2386 21.041C18.2386 16.2139 18.2386 11.3869 18.2386 6.55979C18.2386 6.34919 18.4555 6.16209 18.7231 6.14225C18.9907 6.12241 19.2077 6.27924 19.2077 6.49223C19.2077 11.3643 19.2077 16.2365 19.2077 21.1087C19.2077 21.3216 18.9907 21.4784 18.7231 21.4586Z" fill="#1573FF"/>
<path d="M21.3529 21.6444C21.0847 21.626 20.8675 21.4358 20.8675 21.22C20.8675 16.2735 20.8675 11.3271 20.8675 6.38063C20.8675 6.16474 21.0847 5.97465 21.3529 5.95623C21.621 5.93788 21.8384 6.09993 21.8384 6.31798C21.8384 11.3062 21.8384 16.2944 21.8384 21.2825C21.8384 21.5006 21.621 21.6628 21.3529 21.6444Z" fill="#1573FF"/>
<path d="M23.9875 17.465C23.7189 17.4572 23.5013 17.2718 23.5013 17.0511C23.5013 14.8839 23.5013 12.7168 23.5013 10.5495C23.5013 10.3289 23.7189 10.1435 23.9875 10.1356C24.256 10.1278 24.4738 10.3022 24.4738 10.5248C24.4738 12.7085 24.4738 14.8922 24.4738 17.0758C24.474 17.2985 24.256 17.4728 23.9875 17.465Z" fill="#1573FF"/>
<path d="M26.6264 17.0615C26.3575 17.0553 26.1394 16.8676 26.1394 16.6425C26.1394 14.7477 26.1394 12.853 26.1394 10.9582C26.1394 10.7331 26.3575 10.5454 26.6264 10.5392C26.8953 10.5329 27.1135 10.7119 27.1135 10.9389C27.1135 12.8465 27.1135 14.7542 27.1135 16.6618C27.1135 16.8888 26.8953 17.0678 26.6264 17.0615Z" fill="#1573FF"/>
<path d="M29.2691 17.9247C28.9998 17.9177 28.7815 17.7261 28.7815 17.4969C28.7815 15.0325 28.7815 12.5681 28.7815 10.1037C28.7815 9.87458 28.9998 9.683 29.2691 9.67599C29.5385 9.66898 29.7569 9.85056 29.7569 10.0814C29.7569 12.5607 29.7569 15.0399 29.7569 17.5192C29.7569 17.7501 29.5385 17.9317 29.2691 17.9247Z" fill="#1573FF"/>
<path d="M31.9155 17.6611C31.6458 17.6553 31.4272 17.4618 31.4272 17.2289C31.4272 14.9432 31.4272 12.6574 31.4272 10.3717C31.4272 10.139 31.6458 9.94538 31.9155 9.93956C32.1852 9.93382 32.4039 10.1191 32.4039 10.3535C32.4039 12.6513 32.4039 14.9493 32.4039 17.2472C32.4039 17.4815 32.1852 17.6668 31.9155 17.6611Z" fill="#1573FF"/>
<path d="M34.565 17.2155C34.295 17.2111 34.0761 17.016 34.0761 16.7799C34.0761 14.7935 34.0761 12.8071 34.0761 10.8207C34.0761 10.5846 34.295 10.3896 34.565 10.3851C34.8349 10.3806 35.0539 10.5696 35.0539 10.8069C35.0539 12.8025 35.0539 14.7981 35.0539 16.7937C35.054 17.0311 34.8351 17.2201 34.565 17.2155Z" fill="#1573FF"/>
<path d="M37.2173 16.9198C36.9471 16.9163 36.728 16.7196 36.728 16.4808C36.728 14.6938 36.728 12.9068 36.728 11.1199C36.728 10.8811 36.9471 10.6844 37.2173 10.6809C37.4876 10.6774 37.7068 10.8693 37.7068 11.1094C37.7068 12.9034 37.7068 14.6975 37.7068 16.4914C37.7068 16.7314 37.4877 16.9233 37.2173 16.9198Z" fill="#1573FF"/>
<path d="M39.8721 25.5966C39.6016 25.5858 39.3824 25.381 39.3824 25.1396C39.3824 17.5802 39.3824 10.0207 39.3824 2.46124C39.3824 2.21992 39.6016 2.01506 39.8721 2.00417C40.1426 1.99328 40.3619 2.18129 40.362 2.42358C40.362 10.0081 40.362 17.5927 40.362 25.1772C40.3619 25.4195 40.1426 25.6075 39.8721 25.5966Z" fill="#1573FF"/>
<path d="M42.529 22.4457C42.2584 22.4392 42.0389 22.2364 42.0389 21.9929C42.0389 16.5312 42.0389 11.0694 42.0389 5.6077C42.0389 5.36429 42.2582 5.16137 42.529 5.15488C42.7996 5.14839 43.0191 5.34139 43.0191 5.58563C43.0191 11.0621 43.0191 16.5385 43.0191 22.015C43.0191 22.2593 42.7996 22.4522 42.529 22.4457Z" fill="#1573FF"/>
<path d="M45.1874 18.8893C44.9165 18.8863 44.697 18.685 44.697 18.44C44.697 15.3469 44.697 12.2539 44.697 9.16079C44.697 8.91573 44.9167 8.71446 45.1874 8.7114C45.4582 8.70842 45.6778 8.90537 45.6778 9.15109C45.6778 12.2506 45.6778 15.3501 45.6778 18.4496C45.6778 18.6953 45.4582 18.8923 45.1874 18.8893Z" fill="#1573FF"/>
<path d="M47.8473 16.8397C47.5763 16.8384 47.3566 16.6375 47.3566 16.3912C47.3566 14.664 47.3566 12.9367 47.3566 11.2095C47.3566 10.9631 47.5763 10.7623 47.8473 10.7609C48.1183 10.7597 48.3379 10.9589 48.3379 11.2056C48.3379 12.9354 48.3379 14.6652 48.3379 16.395C48.3379 16.6418 48.1181 16.8409 47.8473 16.8397Z" fill="#1573FF"/>
<path d="M50.5079 18.4101C50.2369 18.409 50.0171 18.2074 50.0171 17.9602C50.0171 15.1869 50.0171 12.4137 50.0171 9.64051C50.0171 9.39322 50.2369 9.19172 50.5079 9.1906C50.7789 9.18941 50.9987 9.38934 50.9987 9.63686C50.9987 12.4125 50.9987 15.1883 50.9987 17.9639C50.9987 18.2114 50.7789 18.4112 50.5079 18.4101Z" fill="#1573FF"/>
<path d="M53.1693 18.5911C52.8983 18.5907 52.6786 18.3894 52.6786 18.1417C52.6786 15.2474 52.6786 12.3532 52.6786 9.45898C52.6786 9.21125 52.8983 9.00997 53.1693 9.00952C53.4404 9.00915 53.6603 9.20991 53.6601 9.45772C53.6601 12.3528 53.6601 15.2478 53.6601 18.143C53.6601 18.3907 53.4404 18.5915 53.1693 18.5911Z" fill="#1573FF"/>
<path d="M55.8308 21.8044C55.5598 21.8051 55.34 21.6044 55.34 21.3566C55.34 16.3191 55.34 11.2816 55.34 6.24414C55.34 5.99633 55.5598 5.79572 55.8308 5.79632C56.1018 5.79699 56.3216 5.99865 56.3216 6.24631C56.3216 11.2823 56.3216 16.3183 56.3216 21.3543C56.3216 21.6021 56.1018 21.8037 55.8308 21.8044Z" fill="#1573FF"/>
<path d="M58.4921 27.6008C58.221 27.6041 58.0013 27.4058 58.0013 27.1583C58.0013 18.253 58.0013 9.34776 58.0013 0.442493C58.0013 0.194979 58.221 -0.00331389 58.4921 4.19747e-05C58.7631 0.00339784 58.9828 0.207066 58.9828 0.454282C58.9828 9.35172 58.9828 18.2491 58.9828 27.1465C58.9828 27.3937 58.7631 27.5973 58.4921 27.6008Z" fill="#1573FF"/>
<path d="M61.1529 17.7039C60.8819 17.7055 60.6623 17.5066 60.6623 17.2598C60.6623 14.9535 60.6623 12.6471 60.6623 10.3408C60.6623 10.094 60.882 9.8951 61.1529 9.89674C61.4238 9.89838 61.6436 10.0996 61.6436 10.3459C61.6436 12.6488 61.6436 14.9517 61.6436 17.2547C61.6434 17.5011 61.4238 17.7023 61.1529 17.7039Z" fill="#1573FF"/>
<path d="M63.8128 17.8572C63.542 17.8596 63.3222 17.6621 63.3224 17.4164C63.3224 15.0056 63.3224 12.5949 63.3224 10.1842C63.3224 9.93844 63.542 9.74104 63.8128 9.74343C64.0836 9.74581 64.3031 9.94658 64.3031 10.1917C64.3031 12.5974 64.3031 15.0032 64.3031 17.4089C64.3031 17.654 64.0835 17.8548 63.8128 17.8572Z" fill="#1573FF"/>
<path d="M66.4712 19.711C66.2006 19.7155 65.981 19.5209 65.9811 19.2767C65.9811 15.6258 65.9811 11.9748 65.9811 8.32384C65.9811 8.07961 66.2006 7.88504 66.4712 7.88951C66.742 7.89399 66.9613 8.09512 66.9613 8.33853C66.9613 11.9796 66.9613 15.6208 66.9613 19.2619C66.9613 19.5055 66.7418 19.7066 66.4712 19.711Z" fill="#1573FF"/>
<path d="M69.128 20.6803C68.8575 20.6867 68.6381 20.4952 68.6381 20.2528C68.6381 15.9512 68.6381 11.6495 68.6381 7.34784C68.6381 7.10554 68.8575 6.91403 69.128 6.92037C69.3985 6.92678 69.6177 7.12777 69.6177 7.36917C69.6177 11.6566 69.6177 15.9441 69.6177 20.2314C69.6177 20.4728 69.3985 20.674 69.128 20.6803Z" fill="#1573FF"/>
<path d="M71.7828 17.9271C71.5126 17.9317 71.2934 17.7407 71.2934 17.5007C71.2934 15.0339 71.2934 12.567 71.2934 10.1003C71.2934 9.8602 71.5125 9.66922 71.7828 9.67384C72.0531 9.67846 72.2722 9.87602 72.2722 10.1149C72.2722 12.572 72.2722 15.029 72.2722 17.4861C72.2722 17.7249 72.0531 17.9225 71.7828 17.9271Z" fill="#1573FF"/>
<path d="M74.4352 22.3593C74.1652 22.3703 73.9463 22.1866 73.9463 21.9492C73.9463 16.5166 73.9463 11.0841 73.9463 5.65153C73.9463 5.41416 74.1652 5.23042 74.4352 5.24146C74.7052 5.25249 74.924 5.45302 74.9242 5.68912C74.9242 11.0966 74.9242 16.5041 74.9242 21.9116C74.924 22.1476 74.7052 22.3482 74.4352 22.3593Z" fill="#1573FF"/>
<path d="M77.0846 22.2449C76.8149 22.2574 76.5962 22.0773 76.5962 21.843C76.5962 16.4812 76.5962 11.1194 76.5962 5.75767C76.5962 5.52335 76.8149 5.34333 77.0846 5.35585C77.3543 5.36838 77.5729 5.56742 77.5729 5.80024C77.5729 11.1336 77.5729 16.467 77.5729 21.8004C77.5729 22.0332 77.3543 22.2324 77.0846 22.2449Z" fill="#1573FF"/>
<path d="M79.7309 17.6023C79.4616 17.6088 79.2432 17.4268 79.2432 17.196C79.2432 14.9323 79.2432 12.6686 79.2432 10.4048C79.2432 10.174 79.4618 9.99199 79.7309 9.99848C80.0003 10.005 80.2186 10.1961 80.2186 10.4253C80.2186 12.6754 80.2186 14.9255 80.2186 17.1756C80.2187 17.4047 80.0003 17.5959 79.7309 17.6023Z" fill="#1573FF"/>
<path d="M82.3738 17.0615C82.1049 17.0677 81.8868 16.8887 81.8867 16.6618C81.8867 14.7542 81.8867 12.8465 81.8867 10.9389C81.8867 10.7119 82.1049 10.5329 82.3738 10.5392C82.6427 10.5454 82.8608 10.7331 82.8608 10.9582C82.8608 12.853 82.8608 14.7477 82.8608 16.6425C82.8608 16.8676 82.6429 17.0553 82.3738 17.0615Z" fill="#1573FF"/>
<path d="M85.0126 17.7758C84.7441 17.7842 84.5263 17.6104 84.5263 17.3878C84.5263 14.9962 84.5263 12.6045 84.5263 10.2129C84.5263 9.99025 84.7441 9.81642 85.0126 9.82492C85.2812 9.83342 85.4988 10.0193 85.4988 10.24C85.4988 12.6136 85.4988 14.9871 85.4988 17.3608C85.4988 17.5814 85.2812 17.7674 85.0126 17.7758Z" fill="#1573FF"/>
<path d="M87.6472 17.3865C87.3791 17.395 87.1617 17.225 87.1617 17.007C87.1617 14.8692 87.1617 12.7314 87.1617 10.5936C87.1617 10.3755 87.3791 10.2056 87.6472 10.2141C87.9154 10.2226 88.1325 10.4046 88.1325 10.6204C88.1325 12.7404 88.1325 14.8603 88.1325 16.9802C88.1325 17.1961 87.9154 17.3781 87.6472 17.3865Z" fill="#1573FF"/>
<path d="M90.2771 16.8562C90.0096 16.8641 89.7925 16.6979 89.7925 16.4849C89.7925 14.6952 89.7925 12.9054 89.7925 11.1156C89.7925 10.9026 90.0095 10.7364 90.2771 10.7445C90.5447 10.7525 90.7615 10.9299 90.7616 11.1405C90.7616 12.9137 90.7616 14.6869 90.7616 16.4601C90.7615 16.6708 90.5447 16.8481 90.2771 16.8562Z" fill="#1573FF"/>
<path d="M92.9019 16.4872C92.6349 16.495 92.4181 16.333 92.4181 16.1255C92.4181 14.5755 92.4181 13.0254 92.4181 11.4753C92.4181 11.2678 92.6349 11.1058 92.9019 11.1136C93.1689 11.1215 93.3853 11.2941 93.3853 11.499C93.3853 13.0332 93.3853 14.5675 93.3853 16.1018C93.3853 16.3067 93.1689 16.4794 92.9019 16.4872Z" fill="#1573FF"/>
<path d="M95.5213 23.5716C95.2547 23.6023 95.0386 23.4633 95.0386 23.2616C95.0386 16.9542 95.0386 10.6466 95.0386 4.3391C95.0386 4.13745 95.2549 3.99844 95.5213 4.02909C95.7877 4.05974 96.0037 4.24626 96.0037 4.44523C96.0037 10.6819 96.0037 16.9187 96.0037 23.1554C96.0037 23.3544 95.7879 23.5409 95.5213 23.5716Z" fill="#1573FF"/>
<path d="M98.1349 20.6792C97.8691 20.703 97.6533 20.5636 97.6534 20.3682C97.6534 15.9896 97.6534 11.6111 97.6534 7.2325C97.6534 7.03711 97.8691 6.89766 98.1349 6.92144C98.4008 6.94523 98.6163 7.12085 98.6163 7.31348C98.6163 11.6381 98.6163 15.9626 98.6163 20.2872C98.6163 20.4797 98.4007 20.6554 98.1349 20.6792Z" fill="#1573FF"/>
<path d="M100.742 17.684C100.477 17.6988 100.262 17.5577 100.262 17.3689C100.262 14.9899 100.262 12.6109 100.262 10.2319C100.262 10.0431 100.477 9.90197 100.742 9.91681C101.007 9.93165 101.222 10.0944 101.222 10.2802C101.222 12.627 101.222 14.9739 101.222 17.3207C101.222 17.5064 101.008 17.6692 100.742 17.684Z" fill="#1573FF"/>
<path d="M103.343 16.021C103.078 16.0305 102.864 15.8907 102.864 15.7089C102.864 14.4365 102.864 13.1642 102.864 11.8919C102.864 11.7102 103.079 11.5703 103.343 11.5798C103.608 11.5892 103.822 11.7418 103.822 11.9203C103.822 13.1737 103.822 14.4271 103.822 15.6805C103.822 15.8591 103.608 16.0116 103.343 16.021Z" fill="#1573FF"/>
<path d="M105.937 17.0176C105.673 17.0326 105.459 16.9032 105.459 16.7288C105.459 14.7765 105.459 12.8243 105.459 10.872C105.459 10.6977 105.673 10.5683 105.937 10.5832C106.201 10.5981 106.415 10.7489 106.415 10.9199C106.415 12.8403 106.415 14.7606 106.415 16.681C106.415 16.8519 106.201 17.0027 105.937 17.0176Z" fill="#1573FF"/>
<path d="M108.524 16.9857C108.261 17.002 108.047 16.88 108.047 16.7134C108.047 14.7714 108.047 12.8294 108.047 10.8873C108.047 10.7208 108.261 10.5988 108.524 10.615C108.787 10.6313 109 10.7767 109 10.9396C109 12.8467 109 14.7539 109 16.661C109 16.824 108.787 16.9694 108.524 16.9857Z" fill="#1573FF"/>
</svg>
