<svg width="64" height="64" viewBox="0 0 64 64" fill="none" xmlns="http://www.w3.org/2000/svg">
<circle cx="32" cy="32" r="32" fill="#CCDCFF"/>
<circle cx="32" cy="32" r="24.7887" fill="#1573FF"/>
<path d="M32 33.9167C31.0278 33.9167 30.2014 33.5643 29.5208 32.8594C28.8403 32.1545 28.5 31.2986 28.5 30.2917V23.0417C28.5 22.0347 28.8403 21.1788 29.5208 20.474C30.2014 19.7691 31.0278 19.4167 32 19.4167C32.9722 19.4167 33.7986 19.7691 34.4792 20.474C35.1597 21.1788 35.5 22.0347 35.5 23.0417V30.2917C35.5 31.2986 35.1597 32.1545 34.4792 32.8594C33.7986 33.5643 32.9722 33.9167 32 33.9167ZM30.8333 41.1667V38.6594C29.0445 38.3976 27.5134 37.6122 26.2402 36.3031C24.967 34.9941 24.1938 33.4031 23.9208 31.5302C23.882 31.1879 23.9695 30.8959 24.1833 30.6542C24.3972 30.4125 24.6695 30.2917 25 30.2917C25.3306 30.2917 25.6078 30.4077 25.8318 30.6397C26.0558 30.8717 26.2063 31.1585 26.2833 31.5C26.5556 32.9097 27.2315 34.0677 28.311 34.974C29.3906 35.8802 30.6202 36.3334 32 36.3334C33.4 36.3334 34.6347 35.8754 35.7042 34.9595C36.7736 34.0436 37.4445 32.8904 37.7167 31.5C37.7945 31.1577 37.9453 30.8709 38.1693 30.6397C38.3933 30.4085 38.6702 30.2925 39 30.2917C39.3298 30.2909 39.602 30.4117 39.8167 30.6542C40.0313 30.8967 40.1188 31.1887 40.0792 31.5302C39.807 33.3629 39.0389 34.9438 37.775 36.2729C36.5111 37.6021 34.975 38.3976 33.1667 38.6594V41.1667C33.1667 41.509 33.0547 41.7962 32.8307 42.0282C32.6067 42.2602 32.3298 42.3758 32 42.375C31.6702 42.3742 31.3933 42.2582 31.1693 42.027C30.9453 41.7958 30.8333 41.509 30.8333 41.1667Z" fill="white"/>
</svg>
